<svg xmlns="http://www.w3.org/2000/svg" xmlns:xlink="http://www.w3.org/1999/xlink" width="195" height="71" viewBox="0 0 195 71">
    <defs>
        <path id="h36wtlbdba" d="M0 0.245L29.89 0.245 29.89 70.155 0 70.155z"/>
        <path id="sc7022xlqc" d="M0.487 0.245L29.547 0.245 29.547 70.154 0.487 70.154z"/>
        <path id="8kwi7409te" d="M0.307 0.404L32.405 0.404 32.405 24.724 0.307 24.724z"/>
        <path id="ge2qq4n0rg" d="M0 70.155L194.407 70.155 194.407 0.245 0 0.245z"/>
    </defs>
    <g fill="none" fill-rule="evenodd">
        <g>
            <g>
                <g>
                    <g transform="translate(-118 -25) translate(-2) translate(120 25)">
                        <mask id="qnhuxlrkib" fill="#fff">
                            <use xlink:href="#h36wtlbdba"/>
                        </mask>
                        <path fill="#FFF" d="M7.65 34.645c0-12.27 9.893-22.254 22.24-22.636V.245l-3.131 10.08c-2.17.302-4.264.88-6.23 1.703l-2.123-4.923c-2.438 1.014-4.718 2.338-6.789 3.94l3.342 4.22c-1.693 1.313-3.22 2.834-4.532 4.542l-4.344-3.224c-1.567 2.047-2.885 4.323-3.88 6.755l5.037 2.01c-.796 1.942-1.348 4.001-1.62 6.178L.23 30.87c-.33 2.647-.299 5.248.059 7.779l5.38-.747c.304 2.143.887 4.201 1.731 6.14l-5.009 2.093c1.037 2.4 2.387 4.658 4.005 6.69l4.28-3.292c1.329 1.676 2.875 3.174 4.604 4.474l-3.268 4.266c2.083 1.57 4.375 2.86 6.856 3.847l2.04-4.967c1.963.775 4.06 1.325 6.255 1.588l2.727 11.413V57.281C17.543 56.897 7.65 46.914 7.65 34.645" mask="url(#qnhuxlrkib)"/>
                    </g>
                    <g transform="translate(-118 -25) translate(-2) translate(120 25) translate(31)">
                        <mask id="ni7lamvb5d" fill="#fff">
                            <use xlink:href="#sc7022xlqc"/>
                        </mask>
                        <path fill="#FFF" d="M29.264 38.649c.35-2.53.383-5.13.056-7.778l-5.24.654c-.262-2.175-.8-4.234-1.575-6.175l4.898-2.012c-.963-2.431-2.246-4.708-3.776-6.755l-4.22 3.224c-1.27-1.707-2.753-3.229-4.404-4.542l3.255-4.22c-2.021-1.602-4.235-2.926-6.605-3.94l-2.06 4.924c-1.922-.825-3.955-1.401-6.064-1.704L.487.245v11.763c12.005.384 21.622 10.368 21.622 22.637S12.492 56.9.487 57.281v12.873l2.649-11.413c2.14-.263 4.18-.813 6.082-1.588l1.985 4.967c2.406-.986 4.642-2.277 6.665-3.846l-3.175-4.265c1.68-1.301 3.183-2.8 4.476-4.476l4.16 3.292c1.571-2.032 2.887-4.29 3.893-6.69l-4.866-2.093c.814-1.938 1.382-3.997 1.68-6.14l5.228.747z" mask="url(#ni7lamvb5d)"/>
                    </g>
                    <path fill="#FFF" d="M39.916 38.15c-.635-.071-1.226-.186-1.78-.338-3.24-.888-5.22-3.043-7.153-5.153-1.74-1.898-3.521-3.842-6.125-4.607.539-.878 1.087-1.708 1.616-2.47.39-.56.769-1.084 1.126-1.563.772-1.035 1.444-1.864 1.9-2.41 1.186 1.418 3.829 4.75 5.906 8.642-.505-.513-.99-1.04-1.472-1.565-1.473-1.607-2.977-3.246-4.981-4.176 0 0-.802 1.088-1.062 1.453 1.873.736 3.272 2.254 4.801 3.924 1.287 1.404 2.65 2.885 4.4 4.042.671.442 1.4.835 2.202 1.158-.227-.788-.5-1.572-.81-2.348-2.672-6.693-7.979-12.629-8.36-13.05L29.5 19l-.624.69c-.188.206-1.566 1.747-3.235 4.052-.407.564-.83 1.17-1.259 1.816-.456.686-.916 1.414-1.367 2.175-.335.566-.664 1.148-.98 1.746.69-.032 1.32.02 1.903.148 2.403.523 4.012 2.278 5.803 4.234 2.149 2.343 4.501 4.91 8.536 5.8-.002.874-.108 1.725-.34 2.535-4.981-.19-7.477-2.914-9.904-5.563-1.58-1.726-3.196-3.487-5.43-4.369-.528-.207-1.09-.367-1.693-.465-.244.555-.472 1.118-.679 1.684-.323.884-.597 1.776-.803 2.669-.135.587-.242 1.173-.315 1.756-.4 3.2.214 6.298 2.643 8.796C23.824 48.828 26.574 50 29.5 50c2.299 0 4.489-.727 6.326-2.07.5-.364.975-.773 1.417-1.226.216-.223.414-.45.602-.683-.93.123-1.788.17-2.585.155-5.162-.1-7.707-2.873-10.178-5.57-.894-.977-1.802-1.963-2.826-2.798-.064.388-.211 2.125-.211 2.125.603.576 1.19 1.213 1.796 1.875 2.201 2.403 4.624 5.033 8.846 5.86-1.008.38-2.082.578-3.187.578-2.47 0-4.792-.987-6.538-2.783-1.8-1.848-2.38-4.163-2.209-6.627.045-.63.138-1.267.272-1.91.21-1.01.52-2.03.903-3.04 1.904.726 3.317 2.26 4.863 3.949 2.462 2.687 5.197 5.662 10.422 6.075.403.031.816.053 1.25.053.22 0 .441-.005.67-.013.26-.58.454-1.179.594-1.791.167-.73.254-1.479.27-2.24.012-.583-.016-1.174-.08-1.77M68 42L68 18 73.768 18 73.768 36.657 93 36.657 93 42zM99.282 18L108 28.108 116.717 18 125 18 110.806 33.311 110.806 42 105.194 42 105.194 33.311 91 18zM161 18L161 42 155.351 42 155.351 26.794 146.924 39.846 142.076 39.846 133.649 26.794 133.649 42 128 42 128 18 133.86 18 144.492 34.818 155.125 18z" transform="translate(-118 -25) translate(-2) translate(120 25)"/>
                    <g transform="translate(-118 -25) translate(-2) translate(120 25) translate(162 18)">
                        <mask id="ouqjanjd9f" fill="#fff">
                            <use xlink:href="#8kwi7409te"/>
                        </mask>
                        <path fill="#FFF" d="M12.116 14.25h8.48l-4.225-7.81-4.255 7.81zM19.183.404l13.223 24.32H26.28l-2.872-5.325H9.319l-2.903 5.325H.306L13.53.404h5.654z" mask="url(#ouqjanjd9f)"/>
                    </g>
                    <g transform="translate(-118 -25) translate(-2) translate(120 25)">
                        <path fill="#FFF" d="M74.278 48.064L74.278 51.406 73.366 51.406 73.366 49.288 72.007 51.107 71.224 51.107 69.865 49.288 69.865 51.406 68.953 51.406 68.953 48.064 69.899 48.064 71.614 50.406 73.33 48.064zM76.25 48.922c-.082.072-.123.163-.123.276v1.074c0 .107.041.2.124.278.083.073.185.111.305.113h2.073c.122-.005.224-.044.305-.115.082-.079.125-.17.125-.276v-1.074c0-.113-.043-.205-.125-.278-.081-.08-.183-.118-.305-.113h-2.073c-.12-.001-.222.037-.305.115zm2.647-.858c.3 0 .553.095.76.284.21.191.314.421.312.692v1.39c.002.27-.102.5-.311.69-.208.19-.462.286-.76.286h-2.61c-.298 0-.551-.095-.76-.285-.209-.19-.313-.42-.313-.69V49.04c0-.27.104-.5.312-.692.21-.189.463-.284.76-.284h2.61zM85.279 48.064L85.279 48.808 83.548 48.808 83.548 51.406 82.638 51.406 82.638 48.808 80.91 48.808 80.91 48.064zM87.252 48.922c-.083.072-.124.163-.124.276v1.074c0 .107.041.2.124.278.083.073.184.111.305.113h2.073c.122-.005.224-.044.305-.115.083-.079.124-.17.124-.276v-1.074c0-.113-.041-.205-.124-.278-.081-.08-.183-.118-.305-.113h-2.073c-.12-.001-.222.037-.305.115zm2.647-.858c.298 0 .552.095.76.284.21.191.313.421.312.692v1.39c.001.27-.103.5-.312.69-.208.19-.462.286-.76.286h-2.61c-.298 0-.551-.095-.76-.285-.209-.19-.313-.42-.313-.69V49.04c0-.27.104-.5.313-.692.209-.189.462-.284.76-.284h2.61zM92.822 49.456l2.278.003c.108 0 .193-.03.256-.092.069-.065.102-.141.1-.235.002-.097-.031-.176-.1-.234-.063-.065-.148-.095-.256-.09h-2.278v.648zm2.366-1.392c.324 0 .6.104.83.312.228.208.342.46.342.753 0 .272-.099.508-.297.709-.199.195-.445.309-.74.343l1.086 1.225h-1.06l-1.004-1.213h-1.523v1.213h-.912v-3.342h3.278zM103.521 48.064c.307 0 .567.098.78.295.215.197.322.434.322.714v.015h-.887c.005-.01.005-.015.002-.015 0-.073-.028-.134-.083-.182-.052-.054-.12-.078-.202-.073h-1.899c-.077-.005-.144.02-.199.075-.054.049-.081.109-.081.18.002.072.03.134.084.183.053.051.119.076.196.076.225 0 .57 0 1.039-.002.467-.005.812-.005 1.035 0 .317-.002.585.1.805.304.225.203.336.447.33.736.002.287-.109.531-.333.734-.218.201-.485.302-.802.302h-2.21c-.312 0-.58-.1-.804-.302-.221-.203-.331-.447-.331-.734h.853v.004c0 .081.03.151.095.21.062.059.138.087.226.087h2.086c.091-.004.167-.033.229-.085.062-.058.093-.128.093-.207 0-.083-.032-.152-.096-.21-.063-.058-.138-.088-.226-.088h-2.152c-.305-.001-.565-.1-.78-.295-.214-.198-.321-.437-.321-.713 0-.28.107-.514.321-.705.213-.193.473-.295.78-.304h2.13zM106.62 49.622h2.298c.132-.004.239-.043.322-.114.084-.078.126-.176.126-.292 0-.123-.042-.22-.126-.294-.083-.078-.19-.116-.322-.115h-2.298v.815zm2.383-1.558c.23 0 .442.051.634.153.195.103.348.242.46.42.113.175.168.37.168.579 0 .208-.056.4-.17.577-.11.176-.263.315-.458.418-.192.1-.403.15-.634.15h-2.383v1.045h-.911v-3.342h3.294zM112.463 49.966h1.36l-.678-1.073-.682 1.073zm1.133-1.902l2.12 3.342h-.982l-.46-.732h-2.26l-.465.732h-.98l2.121-3.342h.906zM117.419 49.456l2.278.003c.107 0 .193-.03.256-.092.068-.065.102-.141.1-.235.002-.097-.032-.176-.1-.234-.063-.065-.149-.095-.256-.09h-2.278v.648zm2.366-1.392c.323 0 .6.104.829.312.229.208.343.46.343.753 0 .272-.1.508-.297.709-.199.195-.445.309-.74.343l1.086 1.225h-1.06l-1.004-1.213h-1.523v1.213h-.912v-3.342h3.278zM126.066 48.064L126.066 48.808 122.855 48.808 122.855 49.354 125.638 49.354 125.638 50.086 122.855 50.086 122.855 50.662 126.066 50.662 126.066 51.406 121.944 51.406 121.944 48.064zM130.243 48.064c.307 0 .567.098.78.295.214.197.321.434.321.714v.015h-.887c.005-.01.006-.015.003-.015 0-.073-.028-.134-.083-.182-.052-.054-.12-.078-.203-.073h-1.898c-.078-.005-.144.02-.2.075-.053.049-.08.109-.08.18.001.072.03.134.083.183.053.051.12.076.197.076.224 0 .57 0 1.038-.002.469-.005.813-.005 1.036 0 .316-.002.585.1.804.304.226.203.336.447.331.736.002.287-.11.531-.333.734-.218.201-.486.302-.802.302h-2.21c-.312 0-.58-.1-.805-.302-.22-.203-.33-.447-.33-.734h.852v.004c0 .081.031.151.096.21.063.059.138.087.226.087h2.086c.09-.004.167-.033.228-.085.063-.058.093-.128.093-.207 0-.083-.031-.152-.095-.21-.063-.058-.139-.088-.226-.088h-2.152c-.306-.001-.565-.1-.78-.295-.215-.198-.322-.437-.322-.713 0-.28.107-.514.322-.705.213-.193.473-.295.78-.304h2.13zM136.397 50.147c-.068.062-.102.138-.102.23.002.087.036.164.105.23.074.063.157.094.25.094l2.108-.003v-.648l-2.108.003c-.095 0-.18.03-.253.094zm2.361-2.08v.71h-1.88c-.099 0-.182.03-.252.094-.069.063-.102.14-.102.232 0 .09.033.169.102.232.07.062.153.094.251.092l3.704-.002v.625h-.911v1.356l-3.276.002c-.285-.001-.528-.092-.728-.273-.2-.182-.3-.403-.3-.66 0-.176.05-.338.146-.484.098-.146.228-.26.39-.34-.1-.084-.18-.185-.239-.302-.051-.115-.08-.238-.085-.368.002-.254.1-.47.295-.649.2-.182.436-.27.709-.266h2.176zM144.454 51.406L144.454 48.064 145.366 48.064 145.366 50.662 148.404 50.662 148.404 51.406zM150.254 48.064v2.208c0 .107.041.2.124.278.083.072.184.11.305.112h1.858c.122-.005.224-.044.305-.115.083-.078.124-.17.124-.275v-2.208h.912v2.366c.002.27-.102.5-.311.69-.209.191-.462.286-.761.286h-2.396c-.297 0-.55-.095-.76-.286-.208-.19-.312-.42-.312-.69v-2.366h.912zM155.733 50.699h2.323c.099 0 .182-.032.25-.095.074-.063.108-.141.103-.233 0-.09-.035-.168-.105-.231-.068-.064-.15-.094-.248-.093h-2.323v.652zm0-1.274h2.093c.1 0 .183-.031.252-.095.068-.063.102-.14.102-.23 0-.092-.034-.17-.102-.231-.069-.064-.152-.095-.252-.095h-2.093v.65zm2.389-1.361c.279 0 .517.089.714.268.2.18.297.395.292.647 0 .13-.03.253-.088.37-.058.116-.14.215-.241.3.163.08.293.195.39.342.098.146.147.306.147.48 0 .259-.1.48-.3.665-.197.18-.44.27-.727.27h-3.487v-3.342h3.3zM161.184 49.456l2.279.003c.107 0 .192-.03.255-.092.069-.065.102-.141.1-.235.002-.097-.031-.176-.1-.234-.063-.065-.148-.095-.255-.09h-2.279v.648zm2.366-1.392c.324 0 .6.104.828.312.23.208.344.46.344.753 0 .272-.099.508-.297.709-.198.195-.445.309-.741.343l1.087 1.225h-1.06l-1.004-1.213h-1.523v1.213h-.911v-3.342h3.277z"/>
                        <mask id="8uvsbdtofh" fill="#fff">
                            <use xlink:href="#ge2qq4n0rg"/>
                        </mask>
                        <path fill="#FFF" d="M165.709 51.406L166.62 51.406 166.62 48.064 165.709 48.064zM171.167 48.064c.298 0 .552.094.76.285.21.19.313.42.312.69v.215h-.912v-.056c0-.112-.04-.204-.124-.278-.081-.08-.183-.117-.304-.112h-2.002c-.116-.002-.217.036-.303.115-.083.071-.125.163-.125.275v1.074c0 .107.042.2.127.278.084.072.185.11.301.112h2.002c.121-.005.223-.044.304-.115.083-.078.124-.17.124-.275v-.051h.912v.21c.001.27-.103.5-.312.69-.208.19-.462.285-.76.285h-2.537c-.297 0-.55-.095-.76-.286-.208-.19-.312-.42-.312-.69v-1.39c0-.27.104-.501.314-.691.21-.19.462-.285.758-.285h2.537zM174.926 49.966h1.36l-.678-1.073-.682 1.073zm1.133-1.902l2.12 3.342h-.982l-.46-.732h-2.26l-.465.732h-.98l2.121-3.342h.906zM179.882 48.064L182.767 50.41 182.767 48.064 183.681 48.064 183.681 51.406 182.767 51.406 179.882 49.062 179.882 51.406 178.97 51.406 178.97 48.064zM188.988 48.064L188.988 48.808 187.257 48.808 187.257 51.406 186.346 51.406 186.346 48.808 184.618 48.808 184.618 48.064zM193.164 48.064c.307 0 .566.098.78.295.214.197.322.434.322.714v.015h-.888c.006-.01.006-.015.003-.015 0-.073-.028-.134-.083-.182-.052-.054-.12-.078-.202-.073h-1.899c-.078-.005-.144.02-.2.075-.053.049-.08.109-.08.18.002.072.03.134.083.183.054.051.12.076.197.076.225 0 .57 0 1.038-.002.468-.005.813-.005 1.036 0 .317-.002.585.1.805.304.225.203.336.447.33.736.002.287-.11.531-.333.734-.218.201-.485.302-.802.302h-2.21c-.312 0-.58-.1-.804-.302-.221-.203-.331-.447-.331-.734h.852v.004c0 .081.032.151.096.21.062.059.138.087.226.087h2.086c.091-.004.167-.033.229-.085.061-.058.093-.128.093-.207 0-.083-.032-.152-.096-.21-.063-.058-.138-.088-.226-.088h-2.152c-.305-.001-.565-.1-.78-.295-.214-.198-.321-.437-.321-.713 0-.28.107-.514.321-.705.213-.193.473-.295.78-.304h2.13z" mask="url(#8uvsbdtofh)"/>
                    </g>
                </g>
            </g>
        </g>
    </g>
</svg>
